<svg width="14" height="16" viewBox="0 0 14 16" fill="none" xmlns="http://www.w3.org/2000/svg">
<path fill-rule="evenodd" clip-rule="evenodd" d="M2.68427 7.18427C2.99669 6.87185 3.50322 6.87185 3.81564 7.18427L6.99993 10.3686L10.1842 7.18427C10.4966 6.87185 11.0032 6.87185 11.3156 7.18427C11.628 7.49669 11.628 8.00322 11.3156 8.31564L6.99993 12.6313L2.68427 8.31564C2.37185 8.00322 2.37185 7.49669 2.68427 7.18427Z" fill="#283168"/>
<path fill-rule="evenodd" clip-rule="evenodd" d="M6.99995 0.199951C7.44178 0.199951 7.79995 0.558123 7.79995 0.999951V11.4999C7.79995 11.9417 7.44178 12.2999 6.99995 12.2999C6.55812 12.2999 6.19995 11.9417 6.19995 11.4999V0.999951C6.19995 0.558123 6.55812 0.199951 6.99995 0.199951Z" fill="#283168"/>
<path fill-rule="evenodd" clip-rule="evenodd" d="M0.949951 14.7001C0.949951 14.2582 1.30812 13.9001 1.74995 13.9001H12.25C12.6918 13.9001 13.05 14.2582 13.05 14.7001C13.05 15.1419 12.6918 15.5001 12.25 15.5001H1.74995C1.30812 15.5001 0.949951 15.1419 0.949951 14.7001Z" fill="#283168"/>
</svg>
