<svg width="22" height="27" viewBox="0 0 22 27" fill="none" xmlns="http://www.w3.org/2000/svg">
<path d="M14.8176 0H1.45312C0.90084 0 0.453125 0.447716 0.453125 1V25.9334C0.453125 26.4857 0.900841 26.9334 1.45313 26.9334H20.9998C21.5521 26.9334 21.9998 26.4857 21.9998 25.9334V7.18223L14.8176 0Z" fill="#283168"/>
<path d="M14.8176 6.18226V3.05176e-05L21.9999 7.18226H15.8176C15.2653 7.18226 14.8176 6.73455 14.8176 6.18226Z" fill="#616BAE"/>
<path d="M6.57568 16.7647C6.81834 16.7647 7.00734 16.7017 7.14268 16.5757C7.28268 16.445 7.35268 16.2723 7.35268 16.0577C7.35268 15.8337 7.28268 15.6587 7.14268 15.5327C7.00734 15.4067 6.81834 15.3437 6.57568 15.3437H5.81268V16.7647H6.57568ZM5.80568 17.5977V19.4667H4.83968V14.5037H6.69468C6.93734 14.5037 7.15901 14.5433 7.35968 14.6227C7.56034 14.6973 7.73301 14.8047 7.87768 14.9447C8.02234 15.08 8.13201 15.2433 8.20668 15.4347C8.28601 15.6213 8.32568 15.8267 8.32568 16.0507C8.32568 16.2747 8.28601 16.4823 8.20668 16.6737C8.13201 16.865 8.02234 17.0283 7.87768 17.1637C7.73301 17.299 7.56034 17.4063 7.35968 17.4857C7.15901 17.5603 6.93734 17.5977 6.69468 17.5977H5.80568ZM10.814 18.5707C11.0146 18.5707 11.206 18.5403 11.388 18.4797C11.57 18.4143 11.7286 18.3163 11.864 18.1857C11.9993 18.055 12.1066 17.8917 12.186 17.6957C12.2653 17.495 12.305 17.2593 12.305 16.9887C12.305 16.718 12.2653 16.4847 12.186 16.2887C12.1066 16.088 11.9993 15.9223 11.864 15.7917C11.7333 15.661 11.577 15.563 11.395 15.4977C11.213 15.4323 11.0216 15.3997 10.821 15.3997H10.044V18.5707H10.814ZM9.07796 19.4667V14.5037H10.856C11.2106 14.5037 11.5373 14.5597 11.836 14.6717C12.1346 14.7837 12.3913 14.947 12.606 15.1617C12.8253 15.3717 12.9956 15.6307 13.117 15.9387C13.243 16.2467 13.306 16.5967 13.306 16.9887C13.306 17.3807 13.243 17.7307 13.117 18.0387C12.9956 18.3467 12.8253 18.6057 12.606 18.8157C12.3866 19.0257 12.1276 19.1867 11.829 19.2987C11.5303 19.4107 11.2036 19.4667 10.849 19.4667H9.07796ZM14.1912 19.4667V14.5037H17.3272V15.4207H15.1572V16.6457H17.0892V17.5347H15.1642V19.4667H14.1912Z" fill="white"/>
</svg>
